# xmcd
#
# Track frame offsets:
#	150
#	14279
#	31343
#	44606
#	47693
#	60988
#	71946
#	92160
#	103454
#	107984
#	127242
#	132523
#	144605
#	156799
#	165218
#	181535
#	182786
#	200435
#
# Disc length: 2852 seconds
#
# Revision: 1
# Processed by: cddbd v1.5.2PL0 Copyright (c) Steve Scherf et al.
# Submitted via: audiograbber 1.83.01
#
DISCID=060b2212
DTITLE=Sorghum Hill - Fiddlin' With The Frogs
DYEAR=2008
DGENRE=Bluegrass
TTITLE0=He's Gonna Leave Me
TTITLE1=Bluegrass Is Where I Belong
TTITLE2=Bailey's Creek
TTITLE3=Road To Carolina - Intro
TTITLE4=Road To Carolina
TTITLE5=You Stood Me Up
TTITLE6=Thunder
TTITLE7=Roll Away The Blues
TTITLE8=Jesse's Joke
TTITLE9=Your Eyes Told Me So
TTITLE10=East Kentucky Time - Intro
TTITLE11=East Kentucky Time
TTITLE12=Family Farm
TTITLE13=Band Intro
TTITLE14=Was Leaving That Easy
TTITLE15=Daddy's Song - Intro
TTITLE16=Daddy's Song
TTITLE17=Heartache and Misery
EXTD=Music and Lyrics by Phillip Cox, ASCAP\nArrangements by Sorghum Hill
EXTT0=
EXTT1=
EXTT2=
EXTT3=
EXTT4=
EXTT5=
EXTT6=
EXTT7=
EXTT8=
EXTT9=
EXTT10=
EXTT11=
EXTT12=
EXTT13=
EXTT14=
EXTT15=
EXTT16=
EXTT17=
PLAYORDER=
